<svg width="35" height="32" viewBox="0 0 35 32" fill="none" xmlns="http://www.w3.org/2000/svg">
<path d="M34.8422 6.60657L22.5978 18.8509C21.2325 20.2128 19.3829 20.9775 17.4545 20.9775C15.5262 20.9775 13.6765 20.2128 12.3113 18.8509L0.0669091 6.60657C0.0465455 6.83639 0 7.04439 0 7.27275V24.7273C0.00230961 26.6554 0.769283 28.5039 2.13268 29.8673C3.49608 31.2307 5.34459 31.9977 7.27273 32H27.6364C29.5645 31.9977 31.413 31.2307 32.7764 29.8673C34.1398 28.5039 34.9068 26.6554 34.9091 24.7273V7.27275C34.9091 7.04439 34.8625 6.83639 34.8422 6.60657Z" fill="#016C3A"/>
<path d="M20.5412 16.7942L33.827 3.50691C33.1834 2.43974 32.2757 1.55642 31.1913 0.942153C30.107 0.327888 28.8827 0.00340461 27.6365 0H7.27282C6.0266 0.00340461 4.80228 0.327888 3.71795 0.942153C2.63362 1.55642 1.72588 2.43974 1.08228 3.50691L14.3681 16.7942C15.1878 17.6106 16.2977 18.069 17.4546 18.069C18.6116 18.069 19.7214 17.6106 20.5412 16.7942Z" fill="#016C3A"/>
</svg>
