<svg width="34" height="42" viewBox="0 0 34 42" fill="none" xmlns="http://www.w3.org/2000/svg">
<path d="M17 0C21.5069 0.0050944 25.8277 1.84673 29.0147 5.12089C32.2017 8.39506 33.9946 12.8344 34 17.465C34 21.9625 30.6106 29.001 23.9254 38.3844C23.1295 39.5047 22.0875 40.416 20.8841 41.0443C19.6806 41.6725 18.3499 42 17 42C15.6501 42 14.3194 41.6725 13.1159 41.0443C11.9125 40.416 10.8705 39.5047 10.0746 38.3844C3.38944 29.001 0 21.9625 0 17.465C0.00540924 12.8344 1.79827 8.39506 4.98527 5.12089C8.17226 1.84673 12.4931 0.0050944 17 0ZM17 24.4265C18.3475 24.4265 19.6647 24.0159 20.7851 23.2467C21.9055 22.4776 22.7787 21.3843 23.2943 20.1053C23.81 18.8262 23.9449 17.4187 23.682 16.0608C23.4192 14.703 22.7703 13.4557 21.8175 12.4767C20.8647 11.4978 19.6507 10.8311 18.3291 10.561C17.0076 10.2909 15.6377 10.4295 14.3928 10.9593C13.1479 11.4891 12.0839 12.3863 11.3352 13.5375C10.5866 14.6886 10.1871 16.042 10.1871 17.4265C10.1871 19.283 10.9048 21.0635 12.1825 22.3762C13.4602 23.689 15.1931 24.4265 17 24.4265Z" fill="#016C3A"/>
</svg>